<svg width="64" height="64" xmlns="http://www.w3.org/2000/svg" viewBox="0 0 64 64">
  <!-- Robe -->
  <path d="M 20 35 L 32 30 L 44 35 L 44 60 L 20 60 Z" fill="#1f2937"/>
  <!-- Head -->
  <circle cx="32" cy="18" r="9" fill="#fbbf24"/>
  <!-- Dark hood -->
  <path d="M 20 15 Q 32 5 44 15 L 42 25 Q 32 18 22 25 Z" fill="#111827"/>
  <!-- Staff -->
  <rect x="46" y="25" width="2" height="25" fill="#78350f"/>
  <circle cx="47" cy="25" r="4" fill="#dc2626" opacity="0.8"/>
  <!-- Dark magic glow -->
  <circle cx="47" cy="25" r="3" fill="#7c2d12" opacity="0.7"/>
  <!-- Skull on staff -->
  <circle cx="47" cy="22" r="2" fill="#f3f4f6"/>
  <circle cx="46" cy="21.5" r="0.5" fill="#111827"/>
  <circle cx="48" cy="21.5" r="0.5" fill="#111827"/>
  <!-- Robe details -->
  <line x1="32" y1="30" x2="32" y2="60" stroke="#374151" stroke-width="1"/>
  <circle cx="28" y="45" r="2" fill="#dc2626" opacity="0.6"/>
  <circle cx="36" y="50" r="2" fill="#dc2626" opacity="0.6"/>
  <!-- Hands -->
  <circle cx="24" cy="38" r="3" fill="#fbbf24"/>
  <circle cx="40" cy="40" r="3" fill="#fbbf24"/>
  <!-- Legs -->
  <rect x="24" y="60" width="6" height="4" fill="#111827"/>
  <rect x="34" y="60" width="6" height="4" fill="#111827"/>
</svg>

