<svg width="64" height="64" xmlns="http://www.w3.org/2000/svg" viewBox="0 0 64 64">
  <!-- Robe -->
  <path d="M 20 35 L 32 30 L 44 35 L 44 60 L 20 60 Z" fill="#f0f9ff"/>
  <!-- Head -->
  <circle cx="32" cy="18" r="9" fill="#fbbf24"/>
  <!-- Hood -->
  <path d="M 20 15 Q 32 8 44 15 L 42 25 Q 32 18 22 25 Z" fill="#0ea5e9"/>
  <!-- Staff -->
  <rect x="46" y="25" width="2" height="25" fill="#78350f"/>
  <circle cx="47" cy="25" r="4" fill="#f0f9ff" opacity="0.9"/>
  <!-- Healing glow -->
  <circle cx="47" cy="25" r="3" fill="#22d3ee" opacity="0.6"/>
  <!-- Cross symbol -->
  <line x1="45" y1="23" x2="49" y2="27" stroke="#0ea5e9" stroke-width="1.5"/>
  <line x1="49" y1="23" x2="45" y2="27" stroke="#0ea5e9" stroke-width="1.5"/>
  <!-- Robe details -->
  <line x1="32" y1="30" x2="32" y2="60" stroke="#0ea5e9" stroke-width="1"/>
  <circle cx="28" y="45" r="2" fill="#7dd3fc"/>
  <circle cx="36" y="50" r="2" fill="#7dd3fc"/>
  <!-- Hands -->
  <circle cx="24" cy="38" r="3" fill="#fbbf24"/>
  <circle cx="40" cy="40" r="3" fill="#fbbf24"/>
  <!-- Legs -->
  <rect x="24" y="60" width="6" height="4" fill="#1f2937"/>
  <rect x="34" y="60" width="6" height="4" fill="#1f2937"/>
</svg>

