<svg width="64" height="64" xmlns="http://www.w3.org/2000/svg" viewBox="0 0 64 64">
  <!-- Robe -->
  <path d="M 20 35 L 32 30 L 44 35 L 44 60 L 20 60 Z" fill="#7c3aed"/>
  <!-- Head -->
  <circle cx="32" cy="18" r="9" fill="#fbbf24"/>
  <!-- Hat -->
  <path d="M 20 15 Q 32 5 44 15 L 42 22 Q 32 15 22 22 Z" fill="#1e1b4b"/>
  <circle cx="32" cy="12" r="3" fill="#fbbf24"/>
  <!-- Staff -->
  <rect x="46" y="25" width="2" height="25" fill="#78350f"/>
  <circle cx="47" cy="25" r="4" fill="#fbbf24" opacity="0.8"/>
  <!-- Magic glow -->
  <circle cx="47" cy="25" r="3" fill="#a78bfa" opacity="0.5"/>
  <!-- Robe details -->
  <line x1="32" y1="30" x2="32" y2="60" stroke="#5b21b6" stroke-width="1"/>
  <circle cx="28" y="45" r="2" fill="#c4b5fd"/>
  <circle cx="36" y="50" r="2" fill="#c4b5fd"/>
  <!-- Hands -->
  <circle cx="24" cy="38" r="3" fill="#fbbf24"/>
  <circle cx="40" cy="40" r="3" fill="#fbbf24"/>
  <!-- Legs -->
  <rect x="24" y="60" width="6" height="4" fill="#1f2937"/>
  <rect x="34" y="60" width="6" height="4" fill="#1f2937"/>
</svg>

